{
	"patcher" : 	{
		"fileversion" : 1,
		"appversion" : 		{
			"major" : 7,
			"minor" : 1,
			"revision" : 0,
			"architecture" : "x64",
			"modernui" : 1
		}
,
		"rect" : [ 34.0, 79.0, 783.0, 683.0 ],
		"bglocked" : 0,
		"openinpresentation" : 1,
		"default_fontsize" : 12.0,
		"default_fontface" : 0,
		"default_fontname" : "Arial",
		"gridonopen" : 1,
		"gridsize" : [ 15.0, 15.0 ],
		"gridsnaponopen" : 1,
		"objectsnaponopen" : 1,
		"statusbarvisible" : 2,
		"toolbarvisible" : 1,
		"lefttoolbarpinned" : 0,
		"toptoolbarpinned" : 0,
		"righttoolbarpinned" : 0,
		"bottomtoolbarpinned" : 0,
		"toolbars_unpinned_last_save" : 0,
		"tallnewobj" : 0,
		"boxanimatetime" : 200,
		"enablehscroll" : 1,
		"enablevscroll" : 1,
		"devicewidth" : 0.0,
		"description" : "",
		"digest" : "",
		"tags" : "",
		"style" : "",
		"subpatcher_template" : "",
		"boxes" : [ 			{
				"box" : 				{
					"id" : "obj-14",
					"linecount" : 2,
					"maxclass" : "comment",
					"numinlets" : 1,
					"numoutlets" : 0,
					"patching_rect" : [ 250.25, 343.0, 142.5, 33.0 ],
					"presentation_rect" : [ 249.5, 348.0, 0.0, 0.0 ],
					"style" : "",
					"text" : "destination\nlist(x1,y1,x2,y2,x3,y3,,,,)"
				}

			}
, 			{
				"box" : 				{
					"id" : "obj-13",
					"linecount" : 2,
					"maxclass" : "comment",
					"numinlets" : 1,
					"numoutlets" : 0,
					"patching_rect" : [ 67.5, 343.0, 146.0, 33.0 ],
					"presentation_rect" : [ 66.0, 346.0, 0.0, 0.0 ],
					"style" : "",
					"text" : "source\nlist(x1,y1,x2,y2,x3,y3,,,,)"
				}

			}
, 			{
				"box" : 				{
					"id" : "obj-12",
					"maxclass" : "comment",
					"numinlets" : 1,
					"numoutlets" : 0,
					"patching_rect" : [ 570.0, 343.0, 150.0, 20.0 ],
					"presentation_rect" : [ 570.0, 344.0, 0.0, 0.0 ],
					"style" : "",
					"text" : "list or float"
				}

			}
, 			{
				"box" : 				{
					"id" : "obj-7",
					"maxclass" : "comment",
					"numinlets" : 1,
					"numoutlets" : 0,
					"patching_rect" : [ 398.0, 343.0, 58.0, 20.0 ],
					"presentation_rect" : [ 527.0, 327.0, 0.0, 0.0 ],
					"style" : "",
					"text" : "float"
				}

			}
, 			{
				"box" : 				{
					"id" : "obj-5",
					"maxclass" : "comment",
					"numinlets" : 1,
					"numoutlets" : 0,
					"patching_rect" : [ 820.0, 204.0, 150.0, 20.0 ],
					"style" : "",
					"text" : "list or float"
				}

			}
, 			{
				"box" : 				{
					"id" : "obj-11",
					"maxclass" : "newobj",
					"numinlets" : 1,
					"numoutlets" : 8,
					"outlettype" : [ "float", "float", "float", "float", "float", "float", "float", "float" ],
					"patching_rect" : [ 389.0, 978.0, 103.0, 22.0 ],
					"style" : "",
					"text" : "unpack f f f f f f f f"
				}

			}
, 			{
				"box" : 				{
					"id" : "obj-10",
					"maxclass" : "newobj",
					"numinlets" : 1,
					"numoutlets" : 8,
					"outlettype" : [ "float", "float", "float", "float", "float", "float", "float", "float" ],
					"patching_rect" : [ 269.0, 978.0, 103.0, 22.0 ],
					"style" : "",
					"text" : "unpack f f f f f f f f"
				}

			}
, 			{
				"box" : 				{
					"id" : "obj-9",
					"maxclass" : "newobj",
					"numinlets" : 1,
					"numoutlets" : 8,
					"outlettype" : [ "float", "float", "float", "float", "float", "float", "float", "float" ],
					"patching_rect" : [ 162.0, 978.0, 103.0, 22.0 ],
					"style" : "",
					"text" : "unpack f f f f f f f f"
				}

			}
, 			{
				"box" : 				{
					"id" : "obj-8",
					"maxclass" : "newobj",
					"numinlets" : 1,
					"numoutlets" : 8,
					"outlettype" : [ "float", "float", "float", "float", "float", "float", "float", "float" ],
					"patching_rect" : [ 45.0, 978.0, 103.0, 22.0 ],
					"style" : "",
					"text" : "unpack f f f f f f f f"
				}

			}
, 			{
				"box" : 				{
					"id" : "obj-6",
					"linecount" : 2,
					"maxclass" : "comment",
					"numinlets" : 1,
					"numoutlets" : 0,
					"patching_rect" : [ 53.0, 120.0, 157.0, 33.0 ],
					"presentation" : 1,
					"presentation_linecount" : 2,
					"presentation_rect" : [ 3.5, 71.0, 157.0, 33.0 ],
					"style" : "",
					"text" : "Random Generate(4source,8out)"
				}

			}
, 			{
				"box" : 				{
					"id" : "obj-4",
					"maxclass" : "button",
					"numinlets" : 1,
					"numoutlets" : 1,
					"outlettype" : [ "bang" ],
					"patching_rect" : [ 53.0, 157.0, 24.0, 24.0 ],
					"presentation" : 1,
					"presentation_rect" : [ 3.5, 108.0, 24.0, 24.0 ],
					"style" : ""
				}

			}
, 			{
				"box" : 				{
					"fontsize" : 18.0,
					"id" : "obj-2",
					"maxclass" : "comment",
					"numinlets" : 1,
					"numoutlets" : 0,
					"patching_rect" : [ 803.5, 64.0, 211.0, 27.0 ],
					"presentation" : 1,
					"presentation_rect" : [ 348.5, 77.0, 171.0, 27.0 ],
					"style" : "",
					"text" : "Spatial Blur"
				}

			}
, 			{
				"box" : 				{
					"format" : 6,
					"id" : "obj-120",
					"maxclass" : "flonum",
					"numinlets" : 1,
					"numoutlets" : 2,
					"outlettype" : [ "", "bang" ],
					"parameter_enable" : 0,
					"patching_rect" : [ 958.0, 106.0, 50.0, 22.0 ],
					"presentation" : 1,
					"presentation_rect" : [ 503.0, 119.0, 50.0, 22.0 ],
					"style" : ""
				}

			}
, 			{
				"box" : 				{
					"format" : 6,
					"id" : "obj-114",
					"maxclass" : "flonum",
					"numinlets" : 1,
					"numoutlets" : 2,
					"outlettype" : [ "", "bang" ],
					"parameter_enable" : 0,
					"patching_rect" : [ 906.0, 106.0, 50.0, 22.0 ],
					"presentation" : 1,
					"presentation_rect" : [ 451.0, 119.0, 50.0, 22.0 ],
					"style" : ""
				}

			}
, 			{
				"box" : 				{
					"format" : 6,
					"id" : "obj-105",
					"maxclass" : "flonum",
					"numinlets" : 1,
					"numoutlets" : 2,
					"outlettype" : [ "", "bang" ],
					"parameter_enable" : 0,
					"patching_rect" : [ 854.0, 106.0, 50.0, 22.0 ],
					"presentation" : 1,
					"presentation_rect" : [ 399.0, 119.0, 50.0, 22.0 ],
					"style" : ""
				}

			}
, 			{
				"box" : 				{
					"format" : 6,
					"id" : "obj-99",
					"maxclass" : "flonum",
					"numinlets" : 1,
					"numoutlets" : 2,
					"outlettype" : [ "", "bang" ],
					"parameter_enable" : 0,
					"patching_rect" : [ 799.0, 106.0, 50.0, 22.0 ],
					"presentation" : 1,
					"presentation_rect" : [ 344.0, 119.0, 50.0, 22.0 ],
					"style" : ""
				}

			}
, 			{
				"box" : 				{
					"id" : "obj-97",
					"maxclass" : "newobj",
					"numinlets" : 4,
					"numoutlets" : 1,
					"outlettype" : [ "" ],
					"patching_rect" : [ 799.0, 174.0, 178.0, 22.0 ],
					"style" : "",
					"text" : "pak f f f f"
				}

			}
, 			{
				"box" : 				{
					"id" : "obj-54",
					"maxclass" : "message",
					"numinlets" : 2,
					"numoutlets" : 1,
					"outlettype" : [ "" ],
					"patching_rect" : [ 53.0, 226.0, 87.0, 22.0 ],
					"style" : "",
					"text" : "1 1 1 1 1 1 1 1"
				}

			}
, 			{
				"box" : 				{
					"id" : "obj-49",
					"maxclass" : "newobj",
					"numinlets" : 1,
					"numoutlets" : 1,
					"outlettype" : [ "" ],
					"patching_rect" : [ 238.0, 309.0, 186.0, 22.0 ],
					"style" : "",
					"text" : "vexpr random(0.\\,512.)/256.-1."
				}

			}
, 			{
				"box" : 				{
					"id" : "obj-47",
					"maxclass" : "message",
					"numinlets" : 2,
					"numoutlets" : 1,
					"outlettype" : [ "" ],
					"patching_rect" : [ 238.0, 226.0, 167.0, 22.0 ],
					"style" : "",
					"text" : "1 1 1 1 1 1 1 1 1 1 1 1 1 1 1 1"
				}

			}
, 			{
				"box" : 				{
					"id" : "obj-39",
					"maxclass" : "newobj",
					"numinlets" : 1,
					"numoutlets" : 1,
					"outlettype" : [ "" ],
					"patching_rect" : [ 53.0, 309.0, 169.0, 22.0 ],
					"style" : "",
					"text" : "vexpr random(0.\\,512.)/256.-1."
				}

			}
, 			{
				"box" : 				{
					"candycane" : 6,
					"id" : "obj-31",
					"maxclass" : "multislider",
					"numinlets" : 1,
					"numoutlets" : 2,
					"outlettype" : [ "", "" ],
					"parameter_enable" : 0,
					"patching_rect" : [ 607.0, 579.0, 264.0, 50.0 ],
					"presentation" : 1,
					"presentation_rect" : [ 556.0, 573.0, 234.0, 131.0 ],
					"setminmax" : [ 0.0, 1.0 ],
					"setstyle" : 1,
					"size" : 8,
					"style" : ""
				}

			}
, 			{
				"box" : 				{
					"candycane" : 6,
					"id" : "obj-32",
					"maxclass" : "multislider",
					"numinlets" : 1,
					"numoutlets" : 2,
					"outlettype" : [ "", "" ],
					"parameter_enable" : 0,
					"patching_rect" : [ 607.0, 514.0, 259.0, 57.0 ],
					"presentation" : 1,
					"presentation_rect" : [ 556.0, 440.0, 234.0, 131.0 ],
					"setminmax" : [ 0.0, 1.0 ],
					"setstyle" : 1,
					"size" : 8,
					"style" : ""
				}

			}
, 			{
				"box" : 				{
					"candycane" : 6,
					"id" : "obj-30",
					"maxclass" : "multislider",
					"numinlets" : 1,
					"numoutlets" : 2,
					"outlettype" : [ "", "" ],
					"parameter_enable" : 0,
					"patching_rect" : [ 607.0, 456.0, 264.0, 50.0 ],
					"presentation" : 1,
					"presentation_rect" : [ 556.0, 307.0, 234.0, 131.0 ],
					"setminmax" : [ 0.0, 1.0 ],
					"setstyle" : 1,
					"size" : 8,
					"style" : ""
				}

			}
, 			{
				"box" : 				{
					"candycane" : 6,
					"id" : "obj-28",
					"maxclass" : "multislider",
					"numinlets" : 1,
					"numoutlets" : 2,
					"outlettype" : [ "", "" ],
					"parameter_enable" : 0,
					"patching_rect" : [ 607.0, 391.0, 259.0, 57.0 ],
					"presentation" : 1,
					"presentation_rect" : [ 556.0, 172.0, 234.0, 131.0 ],
					"setminmax" : [ 0.0, 1.0 ],
					"setstyle" : 1,
					"size" : 8,
					"style" : ""
				}

			}
, 			{
				"box" : 				{
					"filename" : "multidbap.js",
					"id" : "obj-1",
					"jsarguments" : [ 4, 8 ],
					"maxclass" : "jsui",
					"numinlets" : 4,
					"numoutlets" : 4,
					"outlettype" : [ "", "", "", "" ],
					"parameter_enable" : 0,
					"patching_rect" : [ 45.0, 399.0, 542.0, 532.0 ],
					"presentation" : 1,
					"presentation_rect" : [ 11.0, 172.0, 542.0, 532.0 ]
				}

			}
, 			{
				"box" : 				{
					"fontface" : 1,
					"fontname" : "Helvetica Neue Light",
					"fontsize" : 24.0,
					"id" : "obj-134",
					"maxclass" : "comment",
					"numinlets" : 1,
					"numoutlets" : 0,
					"patching_rect" : [ 14.0, 24.0, 445.0, 35.0 ],
					"presentation" : 1,
					"presentation_rect" : [ 3.5, 13.0, 445.0, 35.0 ],
					"style" : "",
					"text" : "Distance-Based Amplitude Panning"
				}

			}
, 			{
				"box" : 				{
					"fontsize" : 18.0,
					"id" : "obj-92",
					"maxclass" : "comment",
					"numinlets" : 1,
					"numoutlets" : 0,
					"patching_rect" : [ 578.5, 97.0, 211.0, 27.0 ],
					"presentation" : 1,
					"presentation_rect" : [ 160.5, 77.0, 171.0, 27.0 ],
					"style" : "",
					"text" : "Rolloff(dB/double)"
				}

			}
, 			{
				"box" : 				{
					"fontsize" : 18.0,
					"format" : 6,
					"id" : "obj-44",
					"maxclass" : "flonum",
					"numinlets" : 1,
					"numoutlets" : 2,
					"outlettype" : [ "", "bang" ],
					"parameter_enable" : 0,
					"patching_rect" : [ 508.0, 97.0, 65.0, 29.0 ],
					"presentation" : 1,
					"presentation_rect" : [ 160.5, 108.0, 65.0, 29.0 ],
					"style" : ""
				}

			}
 ],
		"lines" : [ 			{
				"patchline" : 				{
					"destination" : [ "obj-10", 0 ],
					"disabled" : 0,
					"hidden" : 0,
					"source" : [ "obj-1", 2 ]
				}

			}
, 			{
				"patchline" : 				{
					"destination" : [ "obj-11", 0 ],
					"disabled" : 0,
					"hidden" : 0,
					"source" : [ "obj-1", 3 ]
				}

			}
, 			{
				"patchline" : 				{
					"destination" : [ "obj-28", 0 ],
					"disabled" : 0,
					"hidden" : 0,
					"midpoints" : [ 54.5, 927.0, 594.0, 927.0, 594.0, 387.0, 616.5, 387.0 ],
					"source" : [ "obj-1", 0 ]
				}

			}
, 			{
				"patchline" : 				{
					"destination" : [ "obj-30", 0 ],
					"disabled" : 0,
					"hidden" : 0,
					"midpoints" : [ 228.833333, 927.0, 594.0, 927.0, 594.0, 450.0, 616.5, 450.0 ],
					"source" : [ "obj-1", 1 ]
				}

			}
, 			{
				"patchline" : 				{
					"destination" : [ "obj-31", 0 ],
					"disabled" : 0,
					"hidden" : 0,
					"midpoints" : [ 577.5, 918.0, 594.0, 918.0, 594.0, 573.0, 616.5, 573.0 ],
					"source" : [ "obj-1", 3 ]
				}

			}
, 			{
				"patchline" : 				{
					"destination" : [ "obj-32", 0 ],
					"disabled" : 0,
					"hidden" : 0,
					"midpoints" : [ 403.166667, 927.0, 594.0, 927.0, 594.0, 510.0, 616.5, 510.0 ],
					"source" : [ "obj-1", 2 ]
				}

			}
, 			{
				"patchline" : 				{
					"destination" : [ "obj-8", 0 ],
					"disabled" : 0,
					"hidden" : 0,
					"source" : [ "obj-1", 0 ]
				}

			}
, 			{
				"patchline" : 				{
					"destination" : [ "obj-9", 0 ],
					"disabled" : 0,
					"hidden" : 0,
					"source" : [ "obj-1", 1 ]
				}

			}
, 			{
				"patchline" : 				{
					"destination" : [ "obj-97", 1 ],
					"disabled" : 0,
					"hidden" : 0,
					"source" : [ "obj-105", 0 ]
				}

			}
, 			{
				"patchline" : 				{
					"destination" : [ "obj-97", 2 ],
					"disabled" : 0,
					"hidden" : 0,
					"source" : [ "obj-114", 0 ]
				}

			}
, 			{
				"patchline" : 				{
					"destination" : [ "obj-97", 3 ],
					"disabled" : 0,
					"hidden" : 0,
					"source" : [ "obj-120", 0 ]
				}

			}
, 			{
				"patchline" : 				{
					"destination" : [ "obj-1", 0 ],
					"disabled" : 0,
					"hidden" : 0,
					"midpoints" : [ 62.5, 372.0, 54.5, 372.0 ],
					"source" : [ "obj-39", 0 ]
				}

			}
, 			{
				"patchline" : 				{
					"destination" : [ "obj-47", 0 ],
					"disabled" : 0,
					"hidden" : 0,
					"source" : [ "obj-4", 0 ]
				}

			}
, 			{
				"patchline" : 				{
					"destination" : [ "obj-54", 0 ],
					"disabled" : 0,
					"hidden" : 0,
					"source" : [ "obj-4", 0 ]
				}

			}
, 			{
				"patchline" : 				{
					"destination" : [ "obj-1", 2 ],
					"disabled" : 0,
					"hidden" : 0,
					"midpoints" : [ 517.5, 372.0, 403.166667, 372.0 ],
					"source" : [ "obj-44", 0 ]
				}

			}
, 			{
				"patchline" : 				{
					"destination" : [ "obj-49", 0 ],
					"disabled" : 0,
					"hidden" : 0,
					"source" : [ "obj-47", 0 ]
				}

			}
, 			{
				"patchline" : 				{
					"destination" : [ "obj-1", 1 ],
					"disabled" : 0,
					"hidden" : 0,
					"midpoints" : [ 247.5, 372.0, 228.833333, 372.0 ],
					"source" : [ "obj-49", 0 ]
				}

			}
, 			{
				"patchline" : 				{
					"destination" : [ "obj-39", 0 ],
					"disabled" : 0,
					"hidden" : 0,
					"source" : [ "obj-54", 0 ]
				}

			}
, 			{
				"patchline" : 				{
					"destination" : [ "obj-1", 3 ],
					"disabled" : 0,
					"hidden" : 0,
					"midpoints" : [ 808.5, 372.0, 577.5, 372.0 ],
					"source" : [ "obj-97", 0 ]
				}

			}
, 			{
				"patchline" : 				{
					"destination" : [ "obj-97", 0 ],
					"disabled" : 0,
					"hidden" : 0,
					"source" : [ "obj-99", 0 ]
				}

			}
 ],
		"dependency_cache" : [ 			{
				"name" : "multidbap.js",
				"bootpath" : "~/Max 7/Projects/dbap_example",
				"type" : "TEXT",
				"implicit" : 1
			}
 ],
		"autosave" : 0
	}

}
